<svg xmlns="http://www.w3.org/2000/svg" xmlns:xlink="http://www.w3.org/1999/xlink" width="217" height="172.772" viewBox="0 0 217 172.772">
  <defs>
    <clipPath id="clip-path">
      <path id="Path_132" data-name="Path 132" d="M0-20.6H217V-193.367H0Z" transform="translate(0 193.367)" fill="none"/>
    </clipPath>
    <clipPath id="clip-path-3">
      <path id="Path_141" data-name="Path 141" d="M106.235-159.282v39.827H99.348l-.008-39.827a4.256,4.256,0,0,0-4.251-4.251h0a4.255,4.255,0,0,0-4.249,4.251h0v69.7a53.752,53.752,0,0,0,27.336,7.423h0a53.9,53.9,0,0,0,41.772-19.77H141.261a11.047,11.047,0,0,1-7.695-3.094h0a11.043,11.043,0,0,1-7.693,3.094h0a11.151,11.151,0,0,1-11.138-11.137h0v-46.212a4.255,4.255,0,0,0-4.25-4.251h0a4.255,4.255,0,0,0-4.25,4.251" transform="translate(-90.839 163.533)" fill="none"/>
    </clipPath>
    <linearGradient id="linear-gradient" x1="0.374" y1="0.625" x2="0.692" y2="0.625" gradientUnits="objectBoundingBox">
      <stop offset="0" stop-color="#3bc7d3"/>
      <stop offset="0.1" stop-color="#3ac5d1"/>
      <stop offset="0.2" stop-color="#38c0cc"/>
      <stop offset="0.3" stop-color="#36b9c7"/>
      <stop offset="0.4" stop-color="#33b0c0"/>
      <stop offset="0.5" stop-color="#30a6b8"/>
      <stop offset="0.6" stop-color="#2d9bb0"/>
      <stop offset="0.7" stop-color="#2a8fa7"/>
      <stop offset="0.8" stop-color="#26819e"/>
      <stop offset="0.9" stop-color="#237394"/>
      <stop offset="1" stop-color="#20648a"/>
    </linearGradient>
    <clipPath id="clip-path-4">
      <path id="Path_143" data-name="Path 143" d="M115-193.368a54.014,54.014,0,0,0-54.014,54.014h0a53.909,53.909,0,0,0,19.79,41.788h0V-162.46A11.15,11.15,0,0,1,91.908-173.6h0a11.04,11.04,0,0,1,7.7,3.1h0a11.038,11.038,0,0,1,7.7-3.1h0a11.15,11.15,0,0,1,11.137,11.137h0v46.212a4.255,4.255,0,0,0,4.251,4.25h0a4.254,4.254,0,0,0,4.249-4.25h0v-46.1a11.151,11.151,0,0,1,11.138-11.137h0a11.15,11.15,0,0,1,11.137,11.137h0v28.693c0,6.783-4.326,11.137-11.137,11.137h0V-129.4c2.945,0,4.25-1.528,4.25-4.25h0v-28.693a4.255,4.255,0,0,0-4.25-4.25h0a4.255,4.255,0,0,0-4.25,4.25h0v46.1a4.255,4.255,0,0,0,4.25,4.25h23.493a53.761,53.761,0,0,0,7.434-27.357h0A54.014,54.014,0,0,0,115-193.368Z" transform="translate(-60.981 193.368)" fill="none"/>
    </clipPath>
    <linearGradient id="linear-gradient-2" x1="0.251" y1="0.554" x2="0.749" y2="0.554" xlink:href="#linear-gradient"/>
  </defs>
  <g id="Group_147" data-name="Group 147" transform="translate(0 193.368)">
    <g id="Group_152" data-name="Group 152" transform="translate(0 -193.367)" clip-path="url(#clip-path)">
      <g id="Group_147-2" data-name="Group 147" transform="translate(38.595 138.426)">
        <path id="Path_127" data-name="Path 127" d="M-1.564,0A12.908,12.908,0,0,0-14.687,12.652,13.052,13.052,0,0,0-1.564,25.6,13.01,13.01,0,0,0,11.558,12.738,12.949,12.949,0,0,0-1.564,0m0,20.914A8.1,8.1,0,0,1-9.613,12.78,8.079,8.079,0,0,1-1.564,4.689a8.058,8.058,0,0,1,8.049,8.049,8.122,8.122,0,0,1-8.049,8.176" transform="translate(14.687)" fill="#fff"/>
      </g>
      <g id="Group_148" data-name="Group 148" transform="translate(64.22 139.069)">
        <path id="Path_128" data-name="Path 128" d="M-.353-2.838C-.341-.462-.33,1.59-3.023,1.772l-.288.02V7.06H-3A8.4,8.4,0,0,0,2.085,4.929C4.72,2.656,4.72.284,4.72-2.719V-26.642H-.354Z" transform="translate(3.311 26.642)" fill="#fff"/>
      </g>
      <g id="Group_149" data-name="Group 149" transform="translate(179.815 139.069)">
        <path id="Path_129" data-name="Path 129" d="M0-1.132V13.776H5.074l0-14.508c-.012-2.376,1.394-4.61,5.763-4.61V-10.63C-.519-10.63,0-1.132,0-1.132" transform="translate(0.004 10.63)" fill="#fff"/>
      </g>
      <g id="Group_150" data-name="Group 150" transform="translate(84.17 138.426)">
        <path id="Path_130" data-name="Path 130" d="M-1.488,0a12.5,12.5,0,0,0-12.48,12.78c0,6.95,5.676,12.822,12.394,12.822A12.371,12.371,0,0,0,9.632,18.456H4.124A7.422,7.422,0,0,1-1.4,20.914a7.748,7.748,0,0,1-7.4-5.853H10.744l.032-.273a19.6,19.6,0,0,0,.13-2.264A12.474,12.474,0,0,0-1.488,0M-8.863,11.014A7.4,7.4,0,0,1-1.531,4.689,7.4,7.4,0,0,1,5.8,11.014Z" transform="translate(13.968 0)" fill="#fff"/>
      </g>
      <g id="Group_151" data-name="Group 151" transform="translate(117.932 138.426)">
        <path id="Path_131" data-name="Path 131" d="M-1.488,0a12.5,12.5,0,0,0-12.48,12.78c0,6.95,5.676,12.822,12.394,12.822A12.371,12.371,0,0,0,9.632,18.456H4.124A7.422,7.422,0,0,1-1.4,20.914a7.747,7.747,0,0,1-7.4-5.853H10.744l.031-.273a19.4,19.4,0,0,0,.131-2.264A12.474,12.474,0,0,0-1.488,0M-8.863,11.014A7.4,7.4,0,0,1-1.531,4.689,7.4,7.4,0,0,1,5.8,11.014Z" transform="translate(13.968 0)" fill="#fff"/>
      </g>
    </g>
    <path id="Path_133" data-name="Path 133" d="M124.248-14.31h5.074V-46.642h-5.074Z" transform="translate(-13.234 -15.628)" fill="#fff"/>
    <g id="Group_153" data-name="Group 153" transform="translate(144.868 -62.27)">
      <path id="Path_134" data-name="Path 134" d="M-2.288-.95H-8.343L-16.407,9.979v-18.9h-5.074V23.41h5.074V11.593l9.14,11.816H-.9L-11.138,10.541Z" transform="translate(21.481 8.922)" fill="#fff"/>
    </g>
    <g id="Group_154" data-name="Group 154" transform="translate(164.909 -62.27)">
      <path id="Path_135" data-name="Path 135" d="M-1.075,0H-6.149V7.972h-3.94v4.689h3.94V32.332h5.074V12.661H3.552V7.972H-1.075Z" transform="translate(10.089)" fill="#fff"/>
    </g>
    <g id="Group_158" data-name="Group 158" transform="translate(0 -193.367)" clip-path="url(#clip-path)">
      <g id="Group_155" data-name="Group 155" transform="translate(190.755 138.426)">
        <path id="Path_136" data-name="Path 136" d="M-1.564,0A12.908,12.908,0,0,0-14.687,12.652,13.052,13.052,0,0,0-1.564,25.6,13.01,13.01,0,0,0,11.558,12.738,12.949,12.949,0,0,0-1.564,0m0,20.914A8.1,8.1,0,0,1-9.613,12.78,8.079,8.079,0,0,1-1.564,4.689a8.058,8.058,0,0,1,8.049,8.049,8.122,8.122,0,0,1-8.049,8.176" transform="translate(14.687)" fill="#fff"/>
      </g>
      <g id="Group_156" data-name="Group 156" transform="translate(0 138.384)">
        <path id="Path_137" data-name="Path 137" d="M-3.158,0a10.292,10.292,0,0,0-8.049,3.839A10.3,10.3,0,0,0-19.257,0,10.4,10.4,0,0,0-29.645,10.389V25.045h4.916V10.079a5.432,5.432,0,0,1,5.574-5.264,5.451,5.451,0,0,1,5.608,5.264V25.045H-8.63V10.079A5.432,5.432,0,0,1-3.056,4.815a5.452,5.452,0,0,1,5.609,5.264V25.045H7.23V10.389A10.4,10.4,0,0,0-3.158,0" transform="translate(29.645)" fill="#fff"/>
      </g>
      <g id="Group_157" data-name="Group 157" transform="translate(66.513 131.022)">
        <path id="Path_138" data-name="Path 138" d="M-.381,0a3.2,3.2,0,0,0-3.2,3.2,3.2,3.2,0,0,0,3.2,3.2,3.2,3.2,0,0,0,3.2-3.2A3.2,3.2,0,0,0-.381,0" transform="translate(3.58 0)" fill="#fff"/>
      </g>
    </g>
    <g id="Group_160" data-name="Group 160" transform="translate(81.164 -166.711)" clip-path="url(#clip-path-3)">
      <g id="Group_159" data-name="Group 159" transform="translate(-81.164 -26.656)">
        <path id="Path_140" data-name="Path 140" d="M-90.839-120.905h217V51.866h-217Z" transform="translate(90.839 120.905)" fill="url(#linear-gradient)"/>
      </g>
    </g>
    <g id="Group_162" data-name="Group 162" transform="translate(54.486 -193.368)" clip-path="url(#clip-path-4)">
      <g id="Group_161" data-name="Group 161" transform="translate(-54.486 0.001)">
        <path id="Path_142" data-name="Path 142" d="M-60.981-107.222h217V65.55h-217Z" transform="translate(60.981 107.222)" fill="url(#linear-gradient-2)"/>
      </g>
    </g>
  </g>
</svg>
